# xmcd
# Copyright (C) 1995-1998 Ti Kan
#
# Track frame offsets:
#       150
#       12900
#       31388
#
# Disc length: 678 seconds
#
# Revision: 0
# Processed by: cddbd v1.5.2PL0 Copyright (c) Steve Scherf et al.
# Submitted via: CD-Import v1.0
#
DISCID=1902a403
DTITLE=Theloops - But The Birds
DYEAR=2009
DGENRE=
TTITLE0=Lick It Loud
TTITLE1=Salted Eggs
TTITLE2=She Don't Love Me
EXTD=
EXTT0=
EXTT1=
EXTT2=
PLAYORDER=
